<svg width="13" height="14" viewBox="0 0 13 14" fill="none" xmlns="http://www.w3.org/2000/svg">
<path d="M6.49999 0.69043C2.91014 0.69043 0 3.60057 0 7.19042C0 10.7802 2.91014 13.6904 6.49999 13.6904C10.0898 13.6904 13 10.7802 13 7.19042C12.9962 3.60218 10.0883 0.694266 6.49999 0.69043ZM9.23738 7.39752C9.19239 7.48779 9.11924 7.56096 9.02894 7.60596V7.60827L5.31467 9.46542C5.08529 9.58003 4.80644 9.48702 4.6918 9.25764C4.65921 9.19243 4.64243 9.12045 4.64284 9.04757V5.33329C4.64273 5.07687 4.85049 4.86892 5.10691 4.86878C5.17903 4.86875 5.25017 4.88551 5.31467 4.91775L9.02894 6.7749C9.25844 6.88927 9.35178 7.16803 9.23738 7.39752Z" fill="white"/>
</svg>
